<svg width="11" height="17" viewBox="0 0 11 17" fill="none" xmlns="http://www.w3.org/2000/svg">
<path d="M9.9427 1.00781C10.0543 1.11942 10.1101 1.24777 10.1101 1.39286C10.1101 1.53795 10.0543 1.66629 9.9427 1.7779L3.36346 8.35714L9.9427 14.9364C10.0543 15.048 10.1101 15.1763 10.1101 15.3214C10.1101 15.4665 10.0543 15.5949 9.9427 15.7065L9.10565 16.5435C8.99404 16.6551 8.86569 16.7109 8.7206 16.7109C8.57551 16.7109 8.44716 16.6551 8.33556 16.5435L0.534217 8.74219C0.42261 8.63058 0.366806 8.50223 0.366806 8.35714C0.366806 8.21205 0.42261 8.0837 0.534217 7.9721L8.33556 0.170758C8.44716 0.0591503 8.57551 0.00334668 8.7206 0.00334668C8.86569 0.00334668 8.99404 0.0591503 9.10565 0.170758L9.9427 1.00781Z" fill="white"/>
</svg>
