<svg width="24" height="24" viewBox="0 0 24 24" fill="none" xmlns="http://www.w3.org/2000/svg">
<path d="M9.50002 19C4.26201 19 0 14.738 0 9.50002C0 4.26201 4.26201 0 9.50002 0C14.738 0 19 4.26201 19 9.50002C19 14.738 14.738 19 9.50002 19ZM9.50002 1.5C5.08901 1.5 1.5 5.08901 1.5 9.50002C1.5 13.911 5.08901 17.5 9.50002 17.5C13.911 17.5 17.5 13.911 17.5 9.50002C17.5 5.08901 13.911 1.5 9.50002 1.5Z" fill="white"/>
<path d="M23.2501 24C23.1516 24.0002 23.054 23.9809 22.963 23.9432C22.872 23.9054 22.7894 23.8499 22.7201 23.78L15.16 16.22C15.0904 16.1503 15.0351 16.0676 14.9974 15.9766C14.9597 15.8856 14.9403 15.788 14.9403 15.6895C14.9403 15.591 14.9597 15.4934 14.9974 15.4024C15.0351 15.3114 15.0904 15.2286 15.16 15.159C15.2297 15.0893 15.3124 15.0341 15.4034 14.9963C15.4945 14.9586 15.592 14.9392 15.6905 14.9392C15.7891 14.9392 15.8866 14.9586 15.9777 14.9963C16.0687 15.0341 16.1514 15.0893 16.2211 15.159L23.7811 22.719C23.8862 22.8239 23.9579 22.9576 23.9869 23.1033C24.016 23.249 24.0011 23.4 23.9442 23.5372C23.8874 23.6744 23.791 23.7916 23.6674 23.874C23.5439 23.9564 23.3986 24.0003 23.2501 24Z" fill="white"/>
</svg>
