<svg width="13" height="22" viewBox="0 0 13 22" fill="none" xmlns="http://www.w3.org/2000/svg">
<path d="M12.9983 1.7353C12.9988 1.96342 12.9532 2.18938 12.8639 2.40007C12.7746 2.61077 12.6436 2.80199 12.4783 2.96266L4.27972 10.9984L12.4807 19.0341C12.8132 19.3599 13 19.8018 13 20.2626C13 20.7234 12.8132 21.1653 12.4807 21.4911C12.1481 21.817 11.6971 22 11.2269 22C10.7566 22 10.3056 21.817 9.97312 21.4911L0.519566 12.2281C0.35485 12.0668 0.224184 11.8752 0.135035 11.6644C0.0458851 11.4537 0 11.2277 0 10.9995C0 10.7714 0.0458851 10.5454 0.135035 10.3346C0.224184 10.1238 0.35485 9.93232 0.519566 9.77102L9.97312 0.507942C10.221 0.26535 10.5367 0.100183 10.8803 0.0332928C11.224 -0.033596 11.5801 0.000793457 11.9038 0.132124C12.2275 0.263454 12.5042 0.485832 12.699 0.771172C12.8938 1.05651 12.9979 1.39201 12.9983 1.7353Z" fill="black"/>
</svg>
