<svg width="13" height="22" viewBox="0 0 13 22" fill="none" xmlns="http://www.w3.org/2000/svg">
<path d="M0.00174999 20.2647C0.00117683 20.0366 0.0468426 19.8106 0.136098 19.5999C0.225353 19.3892 0.356421 19.198 0.521695 19.0373L8.72028 11.0016L0.519331 2.9659C0.186809 2.64008 9.53674e-07 2.19817 9.53674e-07 1.73738C9.53674e-07 1.2766 0.186809 0.834691 0.519331 0.508868C0.851853 0.183045 1.30285 0 1.77311 0C2.24337 0 2.69436 0.183045 3.02688 0.508868L12.4804 9.77195C12.6451 9.93324 12.7758 10.1248 12.865 10.3356C12.9541 10.5463 13 10.7723 13 11.0005C13 11.2286 12.9541 11.4546 12.865 11.6654C12.7758 11.8762 12.6451 12.0677 12.4804 12.229L3.02688 21.4921C2.779 21.7346 2.4633 21.8998 2.11967 21.9667C1.77603 22.0336 1.41988 21.9992 1.09618 21.8679C0.772482 21.7365 0.495763 21.5142 0.300973 21.2288C0.106183 20.9435 0.00205803 20.608 0.00174999 20.2647Z" fill="black"/>
</svg>
